<svg width="316" height="316" viewBox="0 0 316 316" fill="none" xmlns="http://www.w3.org/2000/svg">
<path d="M113.562 29.625H202.438C205.153 29.625 207.375 31.8469 207.375 34.5625V59.25H108.625V34.5625C108.625 31.8469 110.847 29.625 113.562 29.625ZM79 34.5625V59.25H39.5C17.7133 59.25 0 76.9633 0 98.75V158H118.5H197.5H316V98.75C316 76.9633 298.287 59.25 276.5 59.25H237V34.5625C237 15.4914 221.509 0 202.438 0H113.562C94.4914 0 79 15.4914 79 34.5625ZM316 177.75H197.5V197.5C197.5 208.424 188.674 217.25 177.75 217.25H138.25C127.326 217.25 118.5 208.424 118.5 197.5V177.75H0V256.75C0 278.537 17.7133 296.25 39.5 296.25H276.5C298.287 296.25 316 278.537 316 256.75V177.75Z" fill="#E9E9E9"/>
</svg>
