<svg width="387" height="430" viewBox="0 0 387 430" fill="none" xmlns="http://www.w3.org/2000/svg">
<path d="M351.148 320.8C354.588 334.28 349.898 341.96 346.118 345.72C344.128 347.7 343.588 350.71 344.878 353.22C352.768 368.51 343.458 375.66 337.918 378.38C335.778 379.44 334.378 381.59 334.378 383.98V394.58C334.378 395.12 334.318 395.68 334.168 396.2C323.248 438 289.278 434.06 246.468 420.99C226.728 414.96 215.838 416.4 209.848 419.73C205.498 422.15 200.228 418.59 200.578 413.62C201.038 407.26 203.028 399.98 208.438 393.52C221.738 377.62 253.548 391.5 261.648 394.1C268.898 396.43 284.968 396.68 288.248 396.7C288.638 396.7 289.028 396.67 289.418 396.6C313.368 392.08 307.918 373.86 307.918 373.86C307.778 370.53 313.268 366.84 316.778 363.98C320.258 361.15 319.848 355.73 315.948 353.51C315.868 353.47 315.798 353.42 315.718 353.38C311.648 351.08 311.348 345.3 315.218 342.66C319.128 339.99 323.508 337.79 326.768 336.3C328.123 335.68 329.214 334.601 329.849 333.254C330.485 331.907 330.622 330.379 330.238 328.94L328.938 324C328.808 323.5 328.598 323.02 328.358 322.56C325.958 318.03 326.308 313.64 327.728 309.87C330.108 303.58 335.578 299 342.058 297.17C362.108 291.5 356.508 284.2 356.508 284.2C356.508 284.2 317.468 233.02 334.818 205.25C340.888 195.53 342.708 183.16 342.518 171.18C342.088 145 331.758 119.97 314.298 100.47C291.898 75.4598 251.208 44.2398 189.518 39.3998C135.938 35.2098 88.4485 67.6098 66.3685 100.42C41.4185 137.51 27.4685 184.76 42.9785 226.67C72.2585 305.78 139.148 308.13 153.508 306.7C156.398 306.41 209.358 285.45 212.158 311.55C212.778 317.35 210.298 323.01 205.908 326.86C150.298 375.5 67.6685 321.26 69.7985 320.77C-9.14153 255.71 -8.89154 171.41 11.4785 119.34C27.6685 77.9498 59.8785 44.9498 99.6185 25.0398C183.958 -17.2202 227.008 1.59982 281.018 26.0898C348.568 56.7198 388.588 145.99 372.108 192.84C355.628 239.68 364.878 228.98 382.808 276.12C400.738 323.25 350.278 320.79 350.278 320.79" fill="#004AAC"/>
<path d="M275.648 122.91C269.698 110.54 253.928 104.22 231.248 105.13C227.738 105.27 224.128 105.59 220.408 106.06C219.228 102.51 217.938 99.1098 216.548 95.8998C207.548 75.0598 195.028 63.5698 181.298 63.5698C167.568 63.5698 155.048 75.0498 146.048 95.8998C144.658 99.1198 143.378 102.52 142.188 106.06C138.478 105.59 134.858 105.28 131.348 105.13C108.658 104.22 92.8884 110.53 86.9484 122.91C81.0484 135.18 85.8484 151.27 100.438 168.24C85.8484 185.22 81.0584 201.3 86.9484 213.57C92.5184 225.16 106.698 231.43 127.108 231.43C147.518 231.43 129.908 231.4 131.348 231.34C134.858 231.2 138.468 230.88 142.188 230.41C143.368 233.96 144.658 237.36 146.048 240.57C155.048 261.41 167.568 272.9 181.298 272.9C195.028 272.9 207.548 261.42 216.548 240.57C217.938 237.35 219.218 233.95 220.408 230.41C224.118 230.88 227.738 231.19 231.248 231.34C232.688 231.4 234.108 231.43 235.488 231.43C255.898 231.43 270.078 225.16 275.648 213.57C281.548 201.3 276.748 185.21 262.158 168.24C276.748 151.26 281.538 135.18 275.648 122.91ZM231.678 115.85C232.978 115.79 234.248 115.77 235.498 115.77C251.338 115.77 262.348 119.99 265.978 127.55C269.768 135.45 265.688 147.36 254.768 160.38C247.128 152.91 237.968 145.7 227.728 139.04C226.708 131.16 225.288 123.59 223.468 116.49C226.268 116.17 229.018 115.95 231.678 115.85ZM197.558 202.07C192.235 204.627 186.815 206.975 181.308 209.11C175.908 207.02 170.468 204.67 165.058 202.07C158.018 198.68 151.278 195.01 144.948 191.11C144.178 183.71 143.778 176.06 143.778 168.24C143.778 160.42 144.178 152.76 144.948 145.37C151.278 141.47 158.018 137.8 165.058 134.41C170.478 131.81 175.908 129.46 181.308 127.37C186.708 129.46 192.148 131.81 197.558 134.41C204.598 137.8 211.338 141.47 217.668 145.37C218.438 152.77 218.838 160.42 218.838 168.24C218.838 176.06 218.438 183.72 217.668 191.11C211.338 195 204.598 198.68 197.558 202.07ZM215.798 204.66C214.968 209.4 213.978 213.98 212.818 218.35C207.343 217.28 201.923 215.942 196.578 214.34C198.448 213.5 200.328 212.63 202.198 211.73C206.858 209.49 211.398 207.12 215.788 204.66H215.798ZM166.018 214.35C160.488 216 155.058 217.34 149.778 218.36C148.628 213.98 147.638 209.4 146.798 204.67C151.188 207.14 155.728 209.51 160.388 211.74C162.258 212.64 164.138 213.51 166.008 214.35H166.018ZM133.548 183.56C126.698 178.65 120.498 173.51 115.148 168.24C120.498 162.97 126.698 157.83 133.548 152.92C133.218 157.95 133.048 163.06 133.048 168.24C133.048 173.42 133.218 178.52 133.548 183.56ZM146.818 131.84C147.648 127.1 148.638 122.52 149.798 118.15C155.274 119.219 160.694 120.557 166.038 122.16C164.168 123 162.288 123.87 160.418 124.77C155.758 127.01 151.218 129.38 146.828 131.84H146.818ZM196.578 122.14C202.108 120.49 207.538 119.15 212.818 118.13C213.968 122.51 214.958 127.09 215.798 131.82C211.408 129.35 206.868 126.98 202.208 124.75C200.338 123.85 198.458 122.98 196.588 122.14H196.578ZM229.068 152.93C235.918 157.84 242.118 162.98 247.468 168.25C242.118 173.52 235.918 178.66 229.068 183.57C229.736 173.367 229.736 163.132 229.068 152.93ZM155.898 100.15C162.998 83.7198 172.258 74.2998 181.298 74.2998C190.338 74.2998 199.608 83.7198 206.698 100.15C207.758 102.6 208.748 105.17 209.678 107.83C200.518 109.67 190.958 112.39 181.288 115.92C171.618 112.39 162.068 109.67 152.898 107.83C153.828 105.16 154.818 102.6 155.878 100.15H155.898ZM96.6284 127.55C100.258 119.99 111.278 115.77 127.108 115.77C142.938 115.77 129.618 115.79 130.928 115.85C133.598 115.95 136.338 116.18 139.138 116.49C137.318 123.6 135.898 131.17 134.878 139.04C124.638 145.7 115.478 152.91 107.838 160.38C96.9184 147.36 92.8284 135.45 96.6284 127.55ZM130.928 220.64C113.048 221.36 100.548 217.09 96.6284 208.94C92.8384 201.04 96.9184 189.13 107.838 176.11C115.478 183.58 124.628 190.79 134.878 197.45C135.898 205.33 137.318 212.9 139.138 220C136.338 220.32 133.588 220.54 130.928 220.64ZM206.708 236.34C199.608 252.77 190.348 262.19 181.308 262.19C172.268 262.19 162.998 252.77 155.908 236.34C154.848 233.89 153.858 231.32 152.928 228.66C162.088 226.82 171.648 224.1 181.318 220.57C190.988 224.1 200.538 226.82 209.708 228.66C208.778 231.33 207.788 233.89 206.728 236.34H206.708ZM265.978 208.93C262.058 217.09 249.558 221.35 231.678 220.63C229.008 220.53 226.268 220.3 223.468 219.99C225.288 212.88 226.708 205.31 227.728 197.44C237.968 190.78 247.128 183.57 254.768 176.1C265.688 189.12 269.778 201.03 265.978 208.93Z" fill="black"/>
<path d="M197.288 172.49C196.858 174.39 196.118 176.16 195.118 177.76L198.448 181.07L193.028 186.51L189.718 183.2C188.06 184.257 186.229 185.015 184.308 185.44V190.1H176.628V185.42C174.728 184.98 172.958 184.23 171.358 183.22L168.048 186.52L162.618 181.08L165.928 177.77C164.908 176.142 164.171 174.354 163.748 172.48H158.988V164.8H163.768C164.194 162.934 164.934 161.156 165.958 159.54L162.608 156.21L168.038 150.77L171.388 154.12C172.997 153.112 174.761 152.375 176.608 151.94V147.18H184.288V151.91C186.218 152.34 188.028 153.1 189.648 154.13L193.008 150.78L198.428 156.22L195.068 159.57C196.068 161.16 196.808 162.93 197.248 164.81H201.908V172.49H197.278H197.288Z" fill="#004AAC"/>
</svg>
